<?xml version="1.0" encoding="UTF-8"?>
<svg id="_レイヤー_1" xmlns="http://www.w3.org/2000/svg" version="1.1" viewBox="0 0 512 512">
  <!-- Generator: Adobe Illustrator 29.1.0, SVG Export Plug-In . SVG Version: 2.1.0 Build 142)  -->
  <defs>
    <style>
      .st0 {
        fill: #fff;
      }

      .st1 {
        fill: #2f4f4f;
      }
    </style>
  </defs>
  <rect class="st1" x="0" y="0" width="512" height="512" rx="60" ry="60"/>
  <g>
    <path class="st0" d="M259.2,454c-107.4,0-194.7-87.4-194.7-194.7s87.4-194.7,194.7-194.7,194.7,87.4,194.7,194.7-87.4,194.7-194.7,194.7ZM259.2,82.2c-97.6,0-177.1,79.4-177.1,177.1s79.4,177.1,177.1,177.1,177.1-79.4,177.1-177.1-79.4-177.1-177.1-177.1Z"/>
    <path class="st0" d="M207.6,251.5l-6.1-6.1-49.6-21.2c-2.7-1.2-4.6-3.6-5.2-6.5-.6-2.9.4-5.8,2.4-7.9l21.9-21.9c1.9-1.9,4.5-2.8,7.2-2.5l65.9,7.1c2.1.2,4,1.2,5.5,2.7l7.1,7.5-12.8,12.2-4.9-5.1-58.5-6.3-9.7,9.7,39.1,16.8c1,.4,2,1.1,2.8,1.9l7.3,7.3-12.5,12.5Z"/>
    <path class="st0" d="M280.6,362.7c-.8,0-1.5,0-2.3-.3-3-.8-5.4-3.2-6.3-6.2l-14.7-54.2-33.1,33.1c-2.3,2.3-10.6,10.2-20.7,15-16.9,8.1-27,1.8-31.4-2.6-5.4-5.4-5.8-12-5-17.2l-30.9-19c-2.3-1.4-3.8-3.8-4.1-6.5-.3-2.7.6-5.4,2.5-7.3l14.6-14.6c1.9-1.9,4.5-2.8,7.1-2.5,14,1.4,29.6,2.8,36.1,3.2l117.5-117.5c5.6-5.6,13-8.6,20.9-8.6s15.3,3.1,20.9,8.6c11.5,11.5,11.5,30.2,0,41.7l-34.4,34.4.4,25c0,.4,0,.8,0,1.1l-7.3,65.7c-.2,2-1.1,3.9-2.5,5.3l-20.9,20.9c-1.7,1.7-3.9,2.6-6.3,2.6ZM257.7,280.3c2.3,0,4.5.9,6.3,2.6l7.3,7.3c1.1,1.1,1.9,2.4,2.3,3.9l11.6,42.7,7.9-7.9,6.9-62.1-.5-28.1c0-2.4.9-4.7,2.6-6.4l37-37c4.6-4.6,4.6-12.1,0-16.7h0c-2.2-2.2-5.2-3.5-8.4-3.5s-6.1,1.2-8.4,3.5l-120.1,120.1c-3.1,3.1-6.4,2.9-13.5,2.4-3.5-.2-8.2-.6-14.1-1.2-6-.5-12.1-1.1-15.9-1.5l-3.7,3.7,26.8,16.5c3.4,2.1,5,6.3,3.8,10.1-1.5,4.8-1.2,6-1.1,6.2h0s0,0,.1.1c2.1,2.1,5.9,1.8,11.3-.8,6-2.9,12.1-7.9,15.8-11.6l39.7-39.7c1.7-1.7,4-2.6,6.3-2.6Z"/>
    <path class="st0" d="M348.4,276.1l-13.2-11.8c42.8-47.8,77.1-96,96.6-135.6,17.8-36.1,22.2-63.8,11.8-74.2-6.8-6.8-19.9-6.1-29.7-4.3-15.5,2.9-35.5,10.8-57.7,22.9l-8.5-15.5c52.5-28.6,89.9-34,108.3-15.6,16.7,16.7,13.7,49.3-8.5,94.5-20.2,41-55.5,90.6-99.3,139.6Z"/>
    <path class="st0" d="M63.8,474.8c-12.2,0-22.4-3.3-29.9-10.8-13.7-13.7-21.2-45.5,21.5-118.6l15.3,8.9c-21.6,37.1-39.3,82.1-24.2,97.2,18.8,18.8,93.6-8.4,195.4-95.6l11.5,13.4c-62.3,53.4-141.3,105.5-189.5,105.5Z"/>
  </g>
</svg>